<svg xmlns="http://www.w3.org/2000/svg" xmlns:xlink="http://www.w3.org/1999/xlink" zoomAndPan="magnify" preserveAspectRatio="xMidYMid meet" version="1.0" viewBox="54.08 35.58 3.77 3.77"><defs><clipPath id="d596b07bc1"><path d="M 54.113281 35.613281 L 57.84375 35.613281 L 57.84375 39.347656 L 54.113281 39.347656 Z M 54.113281 35.613281 " clip-rule="nonzero"/></clipPath></defs><g clip-path="url(#d596b07bc1)"><path fill="#100f0d" d="M 55.96875 36.769531 C 56.355469 36.761719 56.675781 37.070312 56.683594 37.460938 C 56.683594 37.464844 56.683594 37.472656 56.683594 37.480469 C 56.6875 37.867188 56.378906 38.1875 55.988281 38.191406 C 55.601562 38.195312 55.28125 37.882812 55.277344 37.496094 C 55.277344 37.492188 55.277344 37.484375 55.277344 37.480469 C 55.273438 37.09375 55.582031 36.777344 55.96875 36.769531 Z M 56.042969 35.613281 C 55.9375 35.609375 55.832031 35.617188 55.730469 35.628906 C 55.691406 35.636719 55.664062 35.660156 55.652344 35.695312 L 55.546875 36.03125 C 55.539062 36.0625 55.515625 36.085938 55.488281 36.09375 C 55.441406 36.113281 55.394531 36.132812 55.347656 36.152344 C 55.320312 36.167969 55.289062 36.167969 55.261719 36.152344 L 54.949219 35.988281 C 54.917969 35.96875 54.878906 35.972656 54.847656 35.996094 C 54.714844 36.097656 54.597656 36.214844 54.496094 36.347656 C 54.472656 36.378906 54.46875 36.417969 54.484375 36.449219 L 54.652344 36.761719 C 54.664062 36.789062 54.667969 36.820312 54.65625 36.847656 C 54.632812 36.894531 54.613281 36.941406 54.59375 36.988281 C 54.585938 37.019531 54.5625 37.039062 54.535156 37.050781 L 54.195312 37.152344 C 54.160156 37.164062 54.136719 37.195312 54.132812 37.230469 C 54.109375 37.394531 54.109375 37.5625 54.132812 37.730469 C 54.136719 37.765625 54.160156 37.796875 54.195312 37.808594 L 54.535156 37.910156 C 54.5625 37.921875 54.585938 37.941406 54.59375 37.96875 C 54.613281 38.019531 54.632812 38.066406 54.65625 38.113281 C 54.667969 38.140625 54.664062 38.171875 54.652344 38.199219 L 54.484375 38.511719 C 54.46875 38.542969 54.472656 38.582031 54.496094 38.613281 C 54.597656 38.746094 54.714844 38.863281 54.847656 38.964844 C 54.878906 38.988281 54.917969 38.988281 54.949219 38.972656 L 55.261719 38.808594 C 55.289062 38.792969 55.320312 38.792969 55.347656 38.804688 C 55.394531 38.828125 55.441406 38.847656 55.488281 38.867188 C 55.515625 38.875 55.539062 38.898438 55.546875 38.925781 L 55.652344 39.261719 C 55.664062 39.300781 55.691406 39.324219 55.730469 39.328125 C 55.894531 39.351562 56.0625 39.351562 56.230469 39.328125 C 56.265625 39.324219 56.296875 39.300781 56.308594 39.261719 L 56.410156 38.925781 C 56.417969 38.898438 56.441406 38.875 56.46875 38.867188 C 56.519531 38.847656 56.566406 38.828125 56.613281 38.804688 C 56.640625 38.792969 56.671875 38.792969 56.699219 38.808594 L 57.007812 38.972656 C 57.042969 38.988281 57.082031 38.988281 57.109375 38.964844 C 57.242188 38.863281 57.363281 38.746094 57.464844 38.613281 C 57.488281 38.582031 57.488281 38.542969 57.472656 38.511719 L 57.308594 38.199219 C 57.292969 38.171875 57.292969 38.140625 57.304688 38.113281 C 57.328125 38.066406 57.347656 38.019531 57.363281 37.96875 C 57.375 37.941406 57.398438 37.921875 57.425781 37.910156 L 57.761719 37.808594 C 57.796875 37.796875 57.824219 37.765625 57.828125 37.730469 C 57.851562 37.5625 57.851562 37.394531 57.828125 37.230469 C 57.824219 37.195312 57.796875 37.164062 57.761719 37.152344 L 57.425781 37.050781 C 57.398438 37.039062 57.375 37.019531 57.363281 36.988281 C 57.347656 36.941406 57.328125 36.894531 57.304688 36.847656 C 57.292969 36.820312 57.292969 36.789062 57.308594 36.761719 L 57.472656 36.449219 C 57.488281 36.417969 57.488281 36.378906 57.464844 36.347656 C 57.363281 36.214844 57.242188 36.097656 57.109375 35.996094 C 57.082031 35.972656 57.042969 35.96875 57.007812 35.988281 L 56.699219 36.152344 C 56.671875 36.167969 56.640625 36.167969 56.613281 36.152344 C 56.566406 36.132812 56.519531 36.113281 56.46875 36.09375 C 56.441406 36.085938 56.417969 36.0625 56.410156 36.03125 L 56.308594 35.695312 C 56.296875 35.660156 56.265625 35.636719 56.230469 35.628906 C 56.167969 35.621094 56.105469 35.617188 56.042969 35.613281 " fill-opacity="1" fill-rule="nonzero"/></g></svg>